<svg width="929" height="236" viewBox="0 0 929 236" fill="none" xmlns="http://www.w3.org/2000/svg">
<path d="M812.706 57.7588H823.749L870.62 172.542L913.812 57.7588H924.364L870.374 197.016C867.756 203.216 865.302 208.519 863.012 212.924C860.885 217.493 858.431 220.837 855.65 222.959C852.379 225.57 848.452 227.119 843.871 227.609C839.454 228.262 833.565 228.588 826.203 228.588V220.511C832.91 220.511 838.146 219.941 841.908 218.798C845.671 217.819 849.189 215.698 852.46 212.435C854.26 210.64 856.141 207.295 858.104 202.401C860.068 197.669 862.522 191.143 865.466 182.821L812.706 57.7588Z" fill="white"/>
<path d="M805.453 183.556H796.128V156.634H795.638C794.001 161.365 791.63 165.608 788.521 169.361C785.576 172.95 782.059 176.05 777.969 178.661C774.043 181.272 769.707 183.229 764.963 184.534C760.219 185.839 755.393 186.492 750.485 186.492C743.123 186.492 736.824 185.595 731.589 183.8C726.517 182.006 722.346 179.64 719.074 176.703C715.802 173.766 713.184 170.503 711.221 166.913C709.422 163.161 708.113 159.407 707.295 155.655C706.477 151.903 705.986 148.313 705.823 144.886C705.659 141.297 705.577 138.197 705.577 135.586V57.7588H714.902V137.3C714.902 140.562 715.148 144.56 715.638 149.292C716.129 153.861 717.52 158.347 719.81 162.753C722.264 166.994 725.863 170.666 730.608 173.766C735.352 176.866 742.06 178.416 750.73 178.416C757.765 178.416 764.063 177.111 769.626 174.5C775.351 171.889 780.178 168.3 784.104 163.732C788.03 159 790.975 153.452 792.938 147.089C795.065 140.562 796.128 133.465 796.128 125.797V57.7588H805.453V183.556Z" fill="white"/>
<path d="M576.336 8.81055H585.661V84.4354H586.152C587.952 79.5406 590.487 75.2985 593.759 71.7089C597.032 67.9563 600.794 64.8562 605.047 62.4088C609.301 59.7982 613.882 57.9219 618.789 56.7797C623.697 55.4745 628.769 54.8218 634.004 54.8218C643.329 54.8218 651.346 56.4534 658.053 59.7166C664.924 62.9798 670.651 67.4668 675.231 73.1774C679.812 78.8879 683.166 85.5776 685.292 93.2461C687.583 100.752 688.727 108.91 688.727 117.72C688.727 132.731 686.683 144.805 682.593 153.942C678.503 162.916 673.595 169.85 667.869 174.745C662.143 179.476 656.172 182.576 649.955 184.045C643.738 185.677 638.421 186.492 634.004 186.492C625.661 186.492 618.544 185.187 612.655 182.576C606.929 179.966 602.185 176.947 598.422 173.521C594.659 169.931 591.796 166.424 589.833 162.997C587.87 159.571 586.643 157.042 586.152 155.41H585.661V183.555H576.336V8.81055ZM634.004 178.416C642.348 178.416 649.382 176.621 655.108 173.032C660.835 169.442 665.497 164.792 669.096 159.081C672.695 153.208 675.313 146.681 676.948 139.502C678.585 132.16 679.402 124.899 679.402 117.72C679.402 110.704 678.421 103.933 676.458 97.4067C674.658 90.88 671.795 85.0881 667.869 80.0301C664.106 74.809 659.362 70.6484 653.636 67.5483C648.074 64.4482 641.53 62.8983 634.004 62.8983C625.824 62.8983 618.708 64.2851 612.655 67.0588C606.602 69.8325 601.612 73.6668 597.685 78.5617C593.759 83.4565 590.814 89.249 588.851 95.9382C586.888 102.628 585.906 109.888 585.906 117.72C585.906 125.388 586.806 132.894 588.606 140.236C590.406 147.579 593.187 154.105 596.949 159.816C600.876 165.363 605.866 169.85 611.918 173.276C617.972 176.703 625.334 178.416 634.004 178.416Z" fill="white"/>
<path d="M441.685 0H466.224V121.391L522.42 61.1852H551.867L499.353 116.741L553.094 183.556H522.665L483.157 133.873L466.224 152.473V183.556H441.685V0Z" fill="white"/>
<path d="M387.582 58.7373C405.987 58.7373 422.674 66.569 434.453 79.2955L417.766 95.9379C411.14 86.8825 400.588 81.2535 387.582 81.2535C364.515 81.2535 348.81 99.3643 348.81 122.37C348.81 145.62 364.515 163.486 387.582 163.486C400.588 163.486 411.14 157.857 417.766 148.802L434.453 165.444C422.674 178.171 405.987 186.003 387.582 186.003C352.491 186.003 323.779 157.368 323.779 122.37C323.779 87.372 352.491 58.7373 387.582 58.7373Z" fill="white"/>
<path d="M247.802 80.764C224.735 80.764 208.539 99.3643 208.539 122.37C208.539 145.62 224.735 163.976 247.802 163.976C271.115 163.976 288.047 145.62 288.047 122.37C288.047 99.3643 271.115 80.764 247.802 80.764ZM247.802 58.7373C279.458 58.982 311.605 77.5823 311.605 122.37V183.555H287.065V167.892C286.82 168.136 272.342 186.247 247.066 186.247H246.82C207.802 186.247 183.263 156.634 183.263 122.125C183.263 91.5326 203.385 58.7373 247.311 58.7373C247.557 58.7373 247.557 58.7373 247.802 58.7373Z" fill="white"/>
<path d="M142.234 183.556V0H166.774V183.556H142.234Z" fill="white"/>
<path d="M63.803 164.221C87.1157 164.221 103.066 145.621 103.066 122.615C103.066 99.3647 87.1157 81.0092 63.803 81.0092C40.7358 81.0092 23.558 99.3647 23.558 122.615C23.558 145.621 40.7358 164.221 63.803 164.221ZM63.803 186.248C32.8831 186.248 0 167.647 0 122.615V0H24.5396V77.0933C24.5396 77.0933 39.5088 58.7378 64.5392 58.7378C64.7846 58.7378 64.7846 58.7378 65.03 58.7378C108.22 59.2273 127.606 87.6172 127.606 122.615C127.606 160.06 102.085 186.248 63.803 186.248Z" fill="white"/>
</svg>
