<svg width="269" height="68" viewBox="0 0 269 68" fill="none" xmlns="http://www.w3.org/2000/svg">
<path d="M235.326 16.6426H238.524L252.096 49.7158L264.602 16.6426H267.658L252.024 56.7676C251.266 58.554 250.556 60.082 249.893 61.3513C249.277 62.6678 248.566 63.6313 247.761 64.2426C246.814 64.9949 245.677 65.4414 244.35 65.5824C243.071 65.7706 241.366 65.8645 239.234 65.8645V63.5374C241.176 63.5374 242.692 63.3729 243.782 63.0438C244.871 62.7617 245.89 62.1505 246.837 61.2103C247.358 60.6932 247.903 59.7294 248.472 58.319C249.04 56.9558 249.751 55.0752 250.603 52.6775L235.326 16.6426Z" fill="#0000FF"/>
<path d="M233.226 52.8891H230.526V45.1321H230.384C229.91 46.4953 229.223 47.7178 228.323 48.799C227.471 49.8334 226.452 50.7264 225.268 51.4787C224.131 52.231 222.876 52.7952 221.502 53.1712C220.128 53.5472 218.731 53.7353 217.31 53.7353C215.178 53.7353 213.354 53.4767 211.838 52.9596C210.37 52.4426 209.162 51.7608 208.214 50.9146C207.267 50.0684 206.509 49.1282 205.94 48.0938C205.419 47.0126 205.04 45.9312 204.804 44.85C204.567 43.7688 204.425 42.7344 204.377 41.7472C204.33 40.7128 204.306 39.8197 204.306 39.0675V16.6426H207.006V39.5611C207.006 40.5013 207.077 41.6532 207.219 43.0165C207.362 44.3329 207.764 45.6257 208.427 46.895C209.138 48.1173 210.18 49.175 211.554 50.0684C212.928 50.9617 214.87 51.4082 217.381 51.4082C219.418 51.4082 221.241 51.0322 222.852 50.2799C224.51 49.5276 225.907 48.4935 227.044 47.1771C228.181 45.8138 229.034 44.2153 229.602 42.3818C230.218 40.5013 230.526 38.4562 230.526 36.2467V16.6426H233.226V52.8891Z" fill="#0000FF"/>
<path d="M166.883 2.53906H169.583V24.3293H169.725C170.246 22.9189 170.98 21.6966 171.928 20.6623C172.875 19.581 173.965 18.6878 175.196 17.9826C176.428 17.2304 177.754 16.6898 179.176 16.3607C180.597 15.9846 182.065 15.7965 183.581 15.7965C186.281 15.7965 188.603 16.2667 190.545 17.2069C192.534 18.1472 194.192 19.44 195.519 21.0854C196.845 22.7309 197.816 24.6584 198.432 26.868C199.095 29.0306 199.427 31.3811 199.427 33.9198C199.427 38.2449 198.835 41.7239 197.65 44.3565C196.466 46.9423 195.045 48.9402 193.387 50.3506C191.729 51.7139 190 52.6072 188.2 53.0303C186.4 53.5005 184.86 53.7355 183.581 53.7355C181.165 53.7355 179.105 53.3595 177.399 52.6072C175.741 51.8549 174.368 50.9853 173.278 49.998C172.188 48.9637 171.359 47.953 170.791 46.9657C170.222 45.9785 169.867 45.2499 169.725 44.7797H169.583V52.8893H166.883V2.53906ZM183.581 51.4084C185.997 51.4084 188.034 50.8913 189.692 49.857C191.35 48.8226 192.7 47.4828 193.742 45.8374C194.784 44.145 195.542 42.2644 196.016 40.1959C196.49 38.0804 196.727 35.9883 196.727 33.9198C196.727 31.8982 196.442 29.9473 195.874 28.0668C195.353 26.1862 194.524 24.5173 193.387 23.06C192.297 21.5556 190.924 20.3568 189.266 19.4635C187.655 18.5703 185.76 18.1237 183.581 18.1237C181.213 18.1237 179.152 18.5233 177.399 19.3225C175.647 20.1217 174.202 21.2265 173.065 22.6368C171.928 24.0472 171.075 25.7162 170.507 27.6437C169.938 29.5711 169.654 31.6632 169.654 33.9198C169.654 36.1293 169.915 38.292 170.436 40.4075C170.957 42.5231 171.762 44.4036 172.852 46.049C173.988 47.6475 175.433 48.9402 177.186 49.9275C178.939 50.9148 181.071 51.4084 183.581 51.4084Z" fill="#0000FF"/>
<path d="M127.894 0H134.999V34.9772L151.271 17.6296H159.798L144.592 33.6373L160.153 52.8889H151.342L139.902 38.5736L134.999 43.933V52.8889H127.894V0Z" fill="#0000FF"/>
<path d="M112.228 16.9248C117.557 16.9248 122.389 19.1814 125.799 22.8484L120.968 27.6436C119.049 25.0344 115.994 23.4125 112.228 23.4125C105.548 23.4125 101.001 28.6309 101.001 35.2596C101.001 41.9589 105.548 47.1067 112.228 47.1067C115.994 47.1067 119.049 45.4848 120.968 42.8756L125.799 47.6709C122.389 51.3378 117.557 53.5944 112.228 53.5944C102.067 53.5944 93.7529 45.3438 93.7529 35.2596C93.7529 25.1755 102.067 16.9248 112.228 16.9248Z" fill="#0000FF"/>
<path d="M71.7533 23.2715C65.074 23.2715 60.3843 28.6309 60.3843 35.2596C60.3843 41.9589 65.074 47.2478 71.7533 47.2478C78.5037 47.2478 83.4066 41.9589 83.4066 35.2596C83.4066 28.6309 78.5037 23.2715 71.7533 23.2715ZM71.7533 16.9248C80.9196 16.9953 90.228 22.3547 90.228 35.2596V52.8892H83.1224V48.3761C83.0513 48.4466 78.859 53.665 71.5401 53.665H71.4691C60.1711 53.665 53.0654 45.1322 53.0654 35.1891C53.0654 26.3743 58.8921 16.9248 71.6112 16.9248C71.6823 16.9248 71.6823 16.9248 71.7533 16.9248Z" fill="#0000FF"/>
<path d="M41.1851 52.8889V0H48.2907V52.8889H41.1851Z" fill="#0000FF"/>
<path d="M18.4747 47.3179C25.2251 47.3179 29.8438 41.9585 29.8438 35.3298C29.8438 28.6305 25.2251 23.3416 18.4747 23.3416C11.7954 23.3416 6.82143 28.6305 6.82143 35.3298C6.82143 41.9585 11.7954 47.3179 18.4747 47.3179ZM18.4747 53.6646C9.52159 53.6646 0 48.3052 0 35.3298V0H7.10566V22.2133C7.10566 22.2133 11.4401 16.9244 18.6879 16.9244C18.7589 16.9244 18.7589 16.9244 18.83 16.9244C31.336 17.0655 36.9494 25.2456 36.9494 35.3298C36.9494 46.1191 29.5596 53.6646 18.4747 53.6646Z" fill="#0000FF"/>
</svg>
