<?xml version="1.0" encoding="UTF-8"?>
<svg id="Layer_2" data-name="Layer 2" xmlns="http://www.w3.org/2000/svg" viewBox="0 0 126.73 158.66">
  <defs>
    <style>
      .cls-1 {
        fill: #141414;
      }
    </style>
  </defs>
  <g id="Layer_1-2" data-name="Layer 1">
    <g>
      <path class="cls-1" d="M16.04,158.66c-4.41,0-8.68-1.84-11.7-5.06-3.02-3.22-4.59-7.59-4.31-11.99L6.37,41.81c.15-2.39,2.15-4.27,4.55-4.27h23.37v-8.46C34.29,13.04,47.33,0,63.37,0s29.08,13.04,29.08,29.08v8.46h23.37c2.4,0,4.4,1.88,4.55,4.27l6.34,99.8c.28,4.4-1.29,8.78-4.32,11.99-3.02,3.22-7.28,5.06-11.69,5.06H16.04ZM9.13,142.19c-.12,1.93.54,3.77,1.86,5.17,1.32,1.41,3.12,2.19,5.05,2.19h94.66c1.93,0,3.72-.77,5.04-2.18,1.32-1.41,1.99-3.25,1.86-5.18l-6.07-95.53h-19.09v2.62c0,2.51-2.04,4.56-4.56,4.56s-4.56-2.04-4.56-4.56v-2.62h-39.93v2.62c0,2.51-2.04,4.56-4.56,4.56s-4.56-2.04-4.56-4.56v-2.62H15.2l-6.07,95.54ZM83.33,37.54v-8.46c0-11.01-8.96-19.96-19.96-19.96s-19.96,8.96-19.96,19.96v8.46h39.93Z"/>
      <path class="cls-1" d="M91.44,29.08c0-15.48-12.6-28.08-28.08-28.08s-28.08,12.6-28.08,28.08v9.46H10.92c-1.88,0-3.43,1.46-3.55,3.33L1.03,141.67c-.26,4.13,1.21,8.23,4.04,11.24,2.83,3.02,6.83,4.75,10.97,4.75h94.66c4.13,0,8.13-1.73,10.96-4.75,2.83-3.02,4.31-7.11,4.05-11.24l-6.34-99.8c-.12-1.87-1.67-3.33-3.55-3.33h-24.37v-9.46h0ZM42.4,29.08c0-11.56,9.4-20.96,20.96-20.96s20.96,9.4,20.96,20.96v9.46h-41.93v-9.46h0ZM112.48,45.65l6.13,96.47c.14,2.21-.62,4.31-2.13,5.93-1.51,1.61-3.56,2.5-5.77,2.5H16.04c-2.21,0-4.27-.89-5.78-2.5-1.51-1.61-2.27-3.72-2.13-5.92l6.13-96.47h21.03v3.62c0,1.97,1.59,3.56,3.56,3.56s3.56-1.59,3.56-3.56v-3.62h41.93v3.62c0,1.97,1.59,3.56,3.56,3.56s3.56-1.59,3.56-3.56v-3.62h21.03Z"/>
    </g>
  </g>
</svg>