<svg width="43" height="43" viewBox="0 0 43 43" fill="none" xmlns="http://www.w3.org/2000/svg">
<path d="M10.0374 13.4319C8.60196 14.8157 7.88425 15.5076 7.00989 15.4999C4.96413 15.482 1.35298 11.5083 1.50463 9.47199C1.566 8.64786 2.29855 8.02994 3.76363 6.7941L8.15834 3.08706C9.458 1.99077 11.2465 1.94705 12.8705 1.63392C13.5184 1.509 13.8424 1.44654 14.1304 1.55785C15.0588 1.91673 15.8244 3.60554 16.3782 4.36824C18.7079 7.57673 19.8728 9.18097 21.5006 9.18097C23.1283 9.18097 24.2932 7.57673 26.6229 4.36824C27.1767 3.60554 27.9423 1.91674 28.8707 1.55785C29.1587 1.44654 29.4827 1.509 30.1306 1.63392C31.8182 1.95929 33.4849 1.94165 34.8428 3.08706L39.2375 6.7941C40.7026 8.02994 41.4351 8.64786 41.4965 9.47199C41.6481 11.5083 38.037 15.482 35.9912 15.4999C35.1169 15.5076 34.3992 14.8157 32.9637 13.4319" stroke="currentColor" stroke-width="3" stroke-linecap="round" stroke-linejoin="round"/>
<path d="M9.5 11.5C12.5 15.5 11.4119 19.863 10.696 23.9355C9.94009 28.2364 8.66589 30.8525 7.93926 34.3825C7.44035 36.8062 7.19089 38.0181 8.16725 39.0431C10.9237 41.9368 31.3683 42.6801 34.8328 39.0431C35.8091 38.0181 35.5597 36.8062 35.0607 34.3825C34.3341 30.8525 33.0599 28.2364 32.304 23.9355C31.5881 19.863 30.5 15.5 33.5 11.5" stroke="currentColor" stroke-width="3" stroke-linecap="round" stroke-linejoin="round"/>
</svg>
