<svg width="120" height="22" viewBox="0 0 120 22" fill="none" xmlns="http://www.w3.org/2000/svg">
<path d="M108.259 6.608H109.323V9.688H109.379C109.565 9.14667 109.827 8.67067 110.163 8.26C110.517 7.83067 110.919 7.46667 111.367 7.168C111.833 6.86934 112.337 6.64534 112.879 6.496C113.42 6.34667 113.971 6.272 114.531 6.272C115.371 6.272 116.08 6.37467 116.659 6.58C117.256 6.78534 117.741 7.056 118.115 7.392C118.488 7.728 118.777 8.11067 118.983 8.54C119.207 8.95067 119.365 9.37067 119.459 9.8C119.552 10.2293 119.608 10.6493 119.627 11.06C119.645 11.452 119.655 11.7973 119.655 12.096V21H118.591V11.9C118.591 11.5453 118.563 11.0973 118.507 10.556C118.451 10.0147 118.283 9.50134 118.003 9.016C117.741 8.512 117.331 8.08267 116.771 7.728C116.229 7.37334 115.473 7.196 114.503 7.196C113.681 7.196 112.953 7.34534 112.319 7.644C111.684 7.94267 111.143 8.36267 110.695 8.904C110.247 9.42667 109.901 10.0613 109.659 10.808C109.435 11.536 109.323 12.3387 109.323 13.216V21H108.259V6.608Z" fill="white"/>
<path d="M104.087 18.144H104.031C103.863 18.5733 103.62 18.984 103.303 19.376C102.985 19.7493 102.593 20.0853 102.127 20.384C101.679 20.6827 101.165 20.916 100.587 21.084C100.008 21.252 99.3732 21.336 98.6825 21.336C97.1519 21.336 95.9665 21.0093 95.1265 20.356C94.2865 19.684 93.8665 18.6573 93.8665 17.276C93.8665 16.436 94.0345 15.7547 94.3705 15.232C94.7065 14.6907 95.1265 14.2707 95.6305 13.972C96.1532 13.6547 96.7225 13.4307 97.3385 13.3C97.9732 13.1693 98.5799 13.076 99.1585 13.02L100.811 12.88C101.576 12.824 102.173 12.74 102.603 12.628C103.051 12.4973 103.387 12.3293 103.611 12.124C103.835 11.9 103.975 11.62 104.031 11.284C104.087 10.948 104.115 10.528 104.115 10.024C104.115 9.632 104.04 9.268 103.891 8.932C103.741 8.596 103.508 8.29734 103.191 8.036C102.873 7.77467 102.463 7.56934 101.959 7.42C101.455 7.27067 100.839 7.196 100.111 7.196C98.8225 7.196 97.7772 7.51334 96.9745 8.148C96.1905 8.78267 95.7612 9.744 95.6865 11.032H94.6225C94.6972 9.44534 95.2012 8.26 96.1345 7.476C97.0865 6.67334 98.4305 6.272 100.167 6.272C101.903 6.272 103.163 6.61734 103.947 7.308C104.749 7.98 105.151 8.86667 105.151 9.968V18.34C105.151 18.5453 105.151 18.7507 105.151 18.956C105.169 19.1613 105.207 19.348 105.263 19.516C105.319 19.684 105.412 19.824 105.543 19.936C105.673 20.0293 105.86 20.076 106.103 20.076C106.289 20.076 106.551 20.048 106.887 19.992V20.888C106.607 20.9627 106.317 21 106.019 21C105.589 21 105.244 20.944 104.983 20.832C104.74 20.72 104.553 20.5707 104.423 20.384C104.292 20.1973 104.199 19.9827 104.143 19.74C104.105 19.4787 104.087 19.1987 104.087 18.9V18.144ZM104.087 12.824C103.825 13.1413 103.424 13.356 102.883 13.468C102.36 13.58 101.772 13.664 101.119 13.72L99.3265 13.888C98.8039 13.944 98.2812 14.028 97.7585 14.14C97.2359 14.2333 96.7599 14.4013 96.3305 14.644C95.9199 14.8867 95.5839 15.2227 95.3225 15.652C95.0612 16.0627 94.9305 16.604 94.9305 17.276C94.9305 18.34 95.2665 19.1333 95.9385 19.656C96.6105 20.16 97.5345 20.412 98.7105 20.412C99.9239 20.412 100.885 20.1973 101.595 19.768C102.304 19.32 102.845 18.816 103.219 18.256C103.592 17.6773 103.825 17.1267 103.919 16.604C104.031 16.0627 104.087 15.6987 104.087 15.512V12.824Z" fill="white"/>
<path d="M91.135 11.06C91.079 10.4253 90.911 9.86534 90.631 9.38C90.3697 8.89467 90.0244 8.49334 89.595 8.176C89.1657 7.85867 88.6617 7.616 88.083 7.448C87.523 7.28 86.9164 7.196 86.263 7.196C85.367 7.196 84.5737 7.38267 83.883 7.756C83.1924 8.11067 82.6137 8.596 82.147 9.212C81.6804 9.80934 81.3257 10.5 81.083 11.284C80.8404 12.0493 80.719 12.8427 80.719 13.664C80.719 14.6347 80.831 15.5307 81.055 16.352C81.279 17.1733 81.6244 17.892 82.091 18.508C82.5577 19.1053 83.1364 19.572 83.827 19.908C84.5177 20.244 85.3297 20.412 86.263 20.412C86.935 20.412 87.551 20.3 88.111 20.076C88.6897 19.852 89.1937 19.544 89.623 19.152C90.071 18.76 90.435 18.2933 90.715 17.752C90.995 17.192 91.1817 16.5853 91.275 15.932H92.339C92.227 16.7907 91.9937 17.556 91.639 18.228C91.2844 18.9 90.8364 19.4693 90.295 19.936C89.7537 20.384 89.1377 20.7293 88.447 20.972C87.7564 21.2147 87.0284 21.336 86.263 21.336C85.087 21.336 84.079 21.1307 83.239 20.72C82.4177 20.2907 81.7364 19.7213 81.195 19.012C80.6724 18.3027 80.2804 17.4907 80.019 16.576C79.7764 15.6427 79.655 14.672 79.655 13.664C79.655 12.656 79.795 11.704 80.075 10.808C80.3737 9.912 80.803 9.128 81.363 8.456C81.923 7.784 82.6137 7.252 83.435 6.86C84.2564 6.468 85.199 6.272 86.263 6.272C87.047 6.272 87.775 6.37467 88.447 6.58C89.1377 6.76667 89.7444 7.056 90.267 7.448C90.8084 7.84 91.247 8.344 91.583 8.96C91.919 9.55734 92.1244 10.2573 92.199 11.06H91.135Z" fill="white"/>
<path d="M67.6025 16.212C67.6399 16.884 67.7892 17.4813 68.0505 18.004C68.3119 18.508 68.6479 18.9467 69.0585 19.32C69.4879 19.6747 69.9825 19.9453 70.5425 20.132C71.1025 20.3187 71.7092 20.412 72.3625 20.412C72.8292 20.412 73.3239 20.3747 73.8465 20.3C74.3879 20.2067 74.8825 20.048 75.3305 19.824C75.7972 19.6 76.1799 19.292 76.4785 18.9C76.7772 18.4893 76.9265 17.976 76.9265 17.36C76.9265 16.5573 76.6839 15.9507 76.1985 15.54C75.7132 15.1293 75.0972 14.812 74.3505 14.588C73.6225 14.364 72.8292 14.1867 71.9705 14.056C71.1305 13.9067 70.3372 13.692 69.5905 13.412C68.8625 13.132 68.2559 12.74 67.7705 12.236C67.2852 11.7133 67.0425 10.9573 67.0425 9.968C67.0425 9.25867 67.2012 8.67067 67.5185 8.204C67.8359 7.71867 68.2372 7.336 68.7225 7.056C69.2265 6.776 69.7865 6.58 70.4025 6.468C71.0185 6.33734 71.6345 6.272 72.2505 6.272C72.9972 6.272 73.6972 6.356 74.3505 6.524C75.0039 6.692 75.5639 6.96267 76.0305 7.336C76.5159 7.70934 76.8892 8.18534 77.1505 8.764C77.4305 9.34267 77.5705 10.0427 77.5705 10.864H76.5065C76.5065 10.2107 76.3945 9.65067 76.1705 9.184C75.9652 8.71734 75.6665 8.344 75.2745 8.064C74.9012 7.76534 74.4532 7.55067 73.9305 7.42C73.4079 7.27067 72.8479 7.196 72.2505 7.196C71.7652 7.196 71.2705 7.24267 70.7665 7.336C70.2812 7.42934 69.8425 7.588 69.4505 7.812C69.0585 8.036 68.7319 8.32534 68.4705 8.68C68.2279 9.03467 68.1065 9.464 68.1065 9.968C68.1065 10.5467 68.2465 11.0133 68.5265 11.368C68.8065 11.7227 69.1705 12.012 69.6185 12.236C70.0852 12.4413 70.5985 12.6093 71.1585 12.74C71.7372 12.8707 72.3159 13.0013 72.8945 13.132C73.6039 13.2627 74.2665 13.4213 74.8825 13.608C75.5172 13.776 76.0585 14.0187 76.5065 14.336C76.9732 14.6347 77.3372 15.0267 77.5985 15.512C77.8599 15.9973 77.9905 16.6133 77.9905 17.36C77.9905 18.144 77.8132 18.788 77.4585 19.292C77.1039 19.796 76.6559 20.2067 76.1145 20.524C75.5732 20.8227 74.9665 21.028 74.2945 21.14C73.6412 21.2707 72.9972 21.336 72.3625 21.336C71.5412 21.336 70.7759 21.224 70.0665 21C69.3759 20.7947 68.7692 20.4773 68.2465 20.048C67.7239 19.6 67.3132 19.0587 67.0145 18.424C66.7159 17.7893 66.5572 17.052 66.5385 16.212H67.6025Z" fill="white"/>
<path d="M51.7066 0H54.5066V13.888L60.9186 7H64.2786L58.2866 13.356L64.4186 21H60.9466L56.4386 15.316L54.5066 17.444V21H51.7066V0Z" fill="white"/>
<path d="M45.2535 6.72C47.3535 6.72 49.2575 7.616 50.6015 9.072L48.6975 10.976C47.9415 9.94 46.7375 9.296 45.2535 9.296C42.6215 9.296 40.8295 11.368 40.8295 14C40.8295 16.66 42.6215 18.704 45.2535 18.704C46.7375 18.704 47.9415 18.06 48.6975 17.024L50.6015 18.928C49.2575 20.384 47.3535 21.28 45.2535 21.28C41.2495 21.28 37.9735 18.004 37.9735 14C37.9735 9.996 41.2495 6.72 45.2535 6.72Z" fill="white"/>
<path d="M29.0244 9.24C26.3924 9.24 24.5444 11.368 24.5444 14C24.5444 16.66 26.3924 18.76 29.0244 18.76C31.6844 18.76 33.6164 16.66 33.6164 14C33.6164 11.368 31.6844 9.24 29.0244 9.24ZM29.0244 6.72C32.6364 6.748 36.3044 8.876 36.3044 14V21H33.5044V19.208C33.4764 19.236 31.8244 21.308 28.9404 21.308H28.9124C24.4604 21.308 21.6604 17.92 21.6604 13.972C21.6604 10.472 23.9564 6.72 28.9684 6.72C28.9964 6.72 28.9964 6.72 29.0244 6.72Z" fill="white"/>
<path d="M16.699 21V0H19.499V21H16.699Z" fill="white"/>
<path d="M7.46993 18.788C10.1299 18.788 11.9499 16.66 11.9499 14.028C11.9499 11.368 10.1299 9.268 7.46993 9.268C4.83793 9.268 2.87793 11.368 2.87793 14.028C2.87793 16.66 4.83793 18.788 7.46993 18.788ZM7.46993 21.308C3.94193 21.308 0.189926 19.18 0.189926 14.028V0H2.98993V8.82C2.98993 8.82 4.69793 6.72 7.55393 6.72C7.58193 6.72 7.58193 6.72 7.60993 6.72C12.5379 6.776 14.7499 10.024 14.7499 14.028C14.7499 18.312 11.8379 21.308 7.46993 21.308Z" fill="white"/>
</svg>
