<svg width="123" height="27" viewBox="0 0 123 27" fill="none" xmlns="http://www.w3.org/2000/svg">
<path d="M109.386 0H112.186V13.888L118.598 7H121.958L115.966 13.356L122.098 21H118.626L114.118 15.316L112.186 17.444V21H109.386V0Z" fill="#0000FF"/>
<path d="M102.933 6.72C105.033 6.72 106.937 7.616 108.281 9.072L106.377 10.976C105.621 9.94 104.417 9.296 102.933 9.296C100.301 9.296 98.5093 11.368 98.5093 14C98.5093 16.66 100.301 18.704 102.933 18.704C104.417 18.704 105.621 18.06 106.377 17.024L108.281 18.928C106.937 20.384 105.033 21.28 102.933 21.28C98.9293 21.28 95.6533 18.004 95.6533 14C95.6533 9.996 98.9293 6.72 102.933 6.72Z" fill="#0000FF"/>
<path d="M86.7042 9.24C84.0722 9.24 82.2242 11.368 82.2242 14C82.2242 16.66 84.0722 18.76 86.7042 18.76C89.3642 18.76 91.2962 16.66 91.2962 14C91.2962 11.368 89.3642 9.24 86.7042 9.24ZM86.7042 6.72C90.3162 6.748 93.9842 8.876 93.9842 14V21H91.1842V19.208C91.1562 19.236 89.5042 21.308 86.6202 21.308H86.5922C82.1402 21.308 79.3402 17.92 79.3402 13.972C79.3402 10.472 81.6362 6.72 86.6482 6.72C86.6762 6.72 86.6762 6.72 86.7042 6.72Z" fill="#0000FF"/>
<path d="M74.3788 21V0H77.1788V21H74.3788Z" fill="#0000FF"/>
<path d="M65.1496 18.788C67.8096 18.788 69.6296 16.66 69.6296 14.028C69.6296 11.368 67.8096 9.268 65.1496 9.268C62.5176 9.268 60.5576 11.368 60.5576 14.028C60.5576 16.66 62.5176 18.788 65.1496 18.788ZM65.1496 21.308C61.6216 21.308 57.8696 19.18 57.8696 14.028V0H60.6696V8.82C60.6696 8.82 62.3776 6.72 65.2336 6.72C65.2616 6.72 65.2616 6.72 65.2896 6.72C70.2176 6.776 72.4296 10.024 72.4296 14.028C72.4296 18.312 69.5176 21.308 65.1496 21.308Z" fill="#0000FF"/>
<path d="M44.0751 9.912H44.1311C44.2431 9.55734 44.4298 9.16534 44.6911 8.736C44.9524 8.30667 45.2978 7.91467 45.7271 7.56C46.1564 7.18667 46.6698 6.87867 47.2671 6.636C47.8831 6.39334 48.5831 6.272 49.3671 6.272C50.4684 6.272 51.4204 6.47734 52.2231 6.888C53.0444 7.29867 53.7164 7.84934 54.2391 8.54C54.7804 9.23067 55.1818 10.0333 55.4431 10.948C55.7044 11.8627 55.8351 12.824 55.8351 13.832C55.8351 14.9333 55.7044 15.9413 55.4431 16.856C55.1818 17.7707 54.7804 18.564 54.2391 19.236C53.7164 19.8893 53.0444 20.4027 52.2231 20.776C51.4204 21.1493 50.4684 21.336 49.3671 21.336C48.1724 21.336 47.1084 21.0747 46.1751 20.552C45.2418 20.0293 44.5604 19.18 44.1311 18.004H44.0751V26.152H43.0111V6.608H44.0751V9.912ZM49.3671 20.412C50.3004 20.412 51.1031 20.2347 51.7751 19.88C52.4658 19.5253 53.0258 19.0493 53.4551 18.452C53.9031 17.8547 54.2298 17.164 54.4351 16.38C54.6591 15.5773 54.7711 14.728 54.7711 13.832C54.7711 13.0107 54.6684 12.208 54.4631 11.424C54.2578 10.6213 53.9404 9.912 53.5111 9.296C53.0818 8.66134 52.5218 8.15734 51.8311 7.784C51.1591 7.392 50.3378 7.196 49.3671 7.196C48.4151 7.196 47.6031 7.38267 46.9311 7.756C46.2591 8.12934 45.7084 8.624 45.2791 9.24C44.8684 9.856 44.5698 10.5653 44.3831 11.368C44.1964 12.152 44.1031 12.9733 44.1031 13.832C44.1031 14.6907 44.1871 15.5213 44.3551 16.324C44.5231 17.108 44.8031 17.808 45.1951 18.424C45.6058 19.0213 46.1471 19.5067 46.8191 19.88C47.5098 20.2347 48.3591 20.412 49.3671 20.412Z" fill="#0000FF"/>
<path d="M27.328 13.804C27.328 12.7773 27.468 11.816 27.748 10.92C28.0467 10.0053 28.476 9.20267 29.036 8.512C29.596 7.82134 30.2867 7.28 31.108 6.888C31.9293 6.47734 32.872 6.272 33.936 6.272C35 6.272 35.9427 6.47734 36.764 6.888C37.5853 7.28 38.276 7.82134 38.836 8.512C39.396 9.20267 39.816 10.0053 40.096 10.92C40.3947 11.816 40.544 12.7773 40.544 13.804C40.544 14.8307 40.3947 15.8013 40.096 16.716C39.816 17.6307 39.396 18.4333 38.836 19.124C38.276 19.796 37.5853 20.3373 36.764 20.748C35.9427 21.14 35 21.336 33.936 21.336C32.872 21.336 31.9293 21.14 31.108 20.748C30.2867 20.3373 29.596 19.796 29.036 19.124C28.476 18.4333 28.0467 17.6307 27.748 16.716C27.468 15.8013 27.328 14.8307 27.328 13.804ZM28.392 13.804C28.392 14.6627 28.5133 15.4933 28.756 16.296C28.9987 17.08 29.3533 17.78 29.82 18.396C30.2867 19.012 30.8653 19.5067 31.556 19.88C32.2467 20.2347 33.04 20.412 33.936 20.412C34.832 20.412 35.6253 20.2347 36.316 19.88C37.0067 19.5067 37.5853 19.012 38.052 18.396C38.5187 17.78 38.8733 17.08 39.116 16.296C39.3587 15.4933 39.48 14.6627 39.48 13.804C39.48 12.9453 39.3587 12.124 39.116 11.34C38.8733 10.5373 38.5187 9.828 38.052 9.212C37.5853 8.596 37.0067 8.11067 36.316 7.756C35.6253 7.38267 34.832 7.196 33.936 7.196C33.04 7.196 32.2467 7.38267 31.556 7.756C30.8653 8.11067 30.2867 8.596 29.82 9.212C29.3533 9.828 28.9987 10.5373 28.756 11.34C28.5133 12.124 28.392 12.9453 28.392 13.804Z" fill="#0000FF"/>
<path d="M14.8245 1.008V9.688H14.8805C15.0672 9.14666 15.3285 8.67066 15.6645 8.26C16.0192 7.83066 16.4205 7.46666 16.8685 7.168C17.3352 6.86933 17.8392 6.64533 18.3805 6.496C18.9218 6.34666 19.4725 6.272 20.0325 6.272C20.8725 6.272 21.5818 6.37466 22.1605 6.58C22.7578 6.78533 23.2432 7.056 23.6165 7.392C23.9898 7.728 24.2792 8.11066 24.4845 8.54C24.7085 8.95066 24.8672 9.37066 24.9605 9.8C25.0538 10.2293 25.1098 10.6493 25.1285 11.06C25.1472 11.452 25.1565 11.7973 25.1565 12.096V21H24.0925V11.9C24.0925 11.5453 24.0645 11.0973 24.0085 10.556C23.9525 10.0147 23.7845 9.50133 23.5045 9.016C23.2432 8.512 22.8325 8.08266 22.2725 7.728C21.7312 7.37333 20.9752 7.196 20.0045 7.196C19.1832 7.196 18.4552 7.34533 17.8205 7.644C17.1858 7.94266 16.6445 8.36266 16.1965 8.904C15.7485 9.42666 15.4032 10.0613 15.1605 10.808C14.9365 11.536 14.8245 12.3387 14.8245 13.216V21H13.7605V1.008H14.8245Z" fill="#0000FF"/>
<path d="M1.064 16.212C1.10133 16.884 1.25067 17.4813 1.512 18.004C1.77333 18.508 2.10933 18.9467 2.52 19.32C2.94933 19.6747 3.444 19.9453 4.004 20.132C4.564 20.3187 5.17067 20.412 5.824 20.412C6.29067 20.412 6.78533 20.3747 7.308 20.3C7.84933 20.2067 8.344 20.048 8.792 19.824C9.25867 19.6 9.64133 19.292 9.94 18.9C10.2387 18.4893 10.388 17.976 10.388 17.36C10.388 16.5573 10.1453 15.9507 9.66 15.54C9.17467 15.1293 8.55867 14.812 7.812 14.588C7.084 14.364 6.29067 14.1867 5.432 14.056C4.592 13.9067 3.79867 13.692 3.052 13.412C2.324 13.132 1.71733 12.74 1.232 12.236C0.746667 11.7133 0.504 10.9573 0.504 9.968C0.504 9.25867 0.662667 8.67067 0.98 8.204C1.29733 7.71867 1.69867 7.336 2.184 7.056C2.688 6.776 3.248 6.58 3.864 6.468C4.48 6.33734 5.096 6.272 5.712 6.272C6.45867 6.272 7.15867 6.356 7.812 6.524C8.46533 6.692 9.02533 6.96267 9.492 7.336C9.97733 7.70934 10.3507 8.18534 10.612 8.764C10.892 9.34267 11.032 10.0427 11.032 10.864H9.968C9.968 10.2107 9.856 9.65067 9.632 9.184C9.42667 8.71734 9.128 8.344 8.736 8.064C8.36267 7.76534 7.91467 7.55067 7.392 7.42C6.86933 7.27067 6.30933 7.196 5.712 7.196C5.22667 7.196 4.732 7.24267 4.228 7.336C3.74267 7.42934 3.304 7.588 2.912 7.812C2.52 8.036 2.19333 8.32534 1.932 8.68C1.68933 9.03467 1.568 9.464 1.568 9.968C1.568 10.5467 1.708 11.0133 1.988 11.368C2.268 11.7227 2.632 12.012 3.08 12.236C3.54667 12.4413 4.06 12.6093 4.62 12.74C5.19867 12.8707 5.77733 13.0013 6.356 13.132C7.06533 13.2627 7.728 13.4213 8.344 13.608C8.97867 13.776 9.52 14.0187 9.968 14.336C10.4347 14.6347 10.7987 15.0267 11.06 15.512C11.3213 15.9973 11.452 16.6133 11.452 17.36C11.452 18.144 11.2747 18.788 10.92 19.292C10.5653 19.796 10.1173 20.2067 9.576 20.524C9.03467 20.8227 8.428 21.028 7.756 21.14C7.10267 21.2707 6.45867 21.336 5.824 21.336C5.00267 21.336 4.23733 21.224 3.528 21C2.83733 20.7947 2.23067 20.4773 1.708 20.048C1.18533 19.6 0.774667 19.0587 0.476 18.424C0.177333 17.7893 0.0186666 17.052 0 16.212H1.064Z" fill="#0000FF"/>
</svg>
